<svg width="44" height="37" viewBox="0 0 44 37" fill="none" xmlns="http://www.w3.org/2000/svg">
<g clip-path="url(#clip0_30_3931)">
<path d="M43.5663 25.1428L39.8816 19.2906L39.5203 18.7848C38.9423 17.9178 38.0031 17.4121 36.9916 17.4121L31.0671 17.3398L30.7059 18.0623L23.6254 29.4055L23.2642 30.0558L26.2264 34.8242C26.8044 35.6912 27.7436 36.197 28.7551 36.197H37.0638C38.0753 36.197 39.0868 35.6912 39.5926 34.8242L39.8816 34.3907L43.5663 28.4663C44.1443 27.3825 44.1443 26.1543 43.5663 25.1428ZM42.4103 27.6715L38.7256 33.596C38.7256 33.596 38.7256 33.6683 38.6533 33.6683C38.5088 33.8127 38.3643 33.8128 38.2921 33.8128C38.2198 33.8128 38.0031 33.8128 37.8586 33.596L34.1738 27.6715C34.1016 27.5993 34.1016 27.527 34.0293 27.4548C34.0293 27.3825 33.9571 27.3103 33.9571 27.238C33.8848 26.949 33.8848 26.66 33.9571 26.2988C34.0293 26.1543 34.0293 26.0098 34.1738 25.8653L37.8586 20.0131C37.9308 19.8686 38.0753 19.7963 38.1476 19.7963C38.2198 19.7963 38.2198 19.7963 38.2198 19.7963C38.2198 19.7963 38.2198 19.7963 38.2921 19.7963C38.3643 19.7963 38.5811 19.7963 38.7256 20.0131L42.4103 25.8653C42.7715 26.4433 42.7715 27.0935 42.4103 27.6715Z" fill="black"/>
<path d="M32.6568 10.9097C33.2348 9.97044 33.2348 8.66995 32.6568 7.73071L28.9721 1.87849L28.6831 1.37274C28.1051 0.505747 27.1658 0 26.1544 0H17.8456C16.8342 0 15.8949 0.505747 15.3169 1.37274L0.433498 25.2151C0.144499 25.6486 0 26.2266 0 26.7323C0 27.3103 0.144499 27.8161 0.433498 28.3218L4.40722 34.6798C4.98522 35.619 5.92447 36.1248 7.00821 36.1248H15.3169C16.3284 36.1248 17.3399 35.619 17.8456 34.752L18.1346 34.2463L21.0969 29.4778L29.8391 15.4614L32.6568 10.9097ZM31.7898 9.39245C31.7898 9.68144 31.7176 9.97044 31.5008 10.2594L16.9787 33.5238C16.8342 33.7406 16.6174 33.7406 16.5452 33.7406C16.4729 33.7406 16.2562 33.7406 16.1117 33.5238L12.4269 27.5993C12.0657 27.0936 12.0657 26.3711 12.4269 25.8654L27.0213 2.60099C27.1658 2.38424 27.3826 2.38424 27.4548 2.38424C27.5271 2.38424 27.7438 2.38424 27.8883 2.60099L31.5731 8.4532C31.7176 8.7422 31.7898 9.0312 31.7898 9.39245Z" fill="black"/>
</g>
<defs>
<clipPath id="clip0_30_3931">
<rect width="44" height="36.1248" fill="white"/>
</clipPath>
</defs>
</svg>
