<svg width="63" height="62" viewBox="0 0 63 62" fill="none" xmlns="http://www.w3.org/2000/svg">
<path d="M53.4997 31.9299V30.0707C53.4997 28.487 52.88 27.041 51.7094 25.6638C51.0897 24.9753 50.2634 24.2178 49.2994 23.5981C48.8174 23.2538 48.2665 22.9095 47.6468 22.5652C47.1648 22.3587 46.7516 22.0832 46.2696 21.8767C44.9614 21.3258 43.5842 20.8438 42.0693 20.4307C42.2759 21.0504 42.4136 21.739 42.5513 22.3587C42.6891 23.0472 42.8268 23.7358 42.9645 24.4244C43.7219 24.6998 44.5482 24.9753 45.2368 25.3195C45.5811 25.4573 45.9254 25.595 46.2696 25.8016C46.4074 25.8704 46.6139 25.9393 46.7516 26.0081C47.3714 26.3524 47.8534 26.6967 48.3354 27.041C50.1257 28.2116 51.2274 29.5887 51.5717 30.9659C51.2274 32.4119 50.1257 33.789 48.3354 34.9596C48.5419 35.5105 48.7485 35.9925 48.8862 36.4745C49.0928 37.0942 49.2305 37.7828 49.2994 38.4025C50.2634 37.7828 51.0897 37.0253 51.7094 36.3368C52.88 34.9596 53.4997 33.5136 53.4997 31.9299Z" fill="#2F577E"/>
<path d="M26.6458 42.6712C25.8884 42.0515 25.131 41.4317 24.4424 40.7432C24.5801 41.294 24.7178 41.9137 24.9244 42.4646C25.4752 42.5335 26.095 42.6023 26.6458 42.6712Z" fill="#2F577E"/>
<path d="M30.639 41.0875C30.9145 41.2941 31.1899 41.5007 31.4653 41.7073C32.085 42.0516 32.6359 42.4647 33.1868 42.7401C33.2556 42.809 33.3245 42.8778 33.3933 42.8778C34.3573 42.8778 35.3902 42.809 36.3542 42.6713C36.9051 42.6024 37.5248 42.5336 38.0756 42.4647C38.7642 42.327 39.4528 42.1893 40.1414 42.0516C40.7611 41.9138 41.4497 41.7761 42.0694 41.5695C43.5842 41.1564 44.9614 40.6744 46.2697 40.1235C46.132 39.5038 45.9943 38.8841 45.7877 38.2644C45.7188 38.1267 45.7188 37.9201 45.65 37.7135C45.5123 37.3692 45.3745 37.025 45.2368 36.6807C44.5483 37.025 43.722 37.3004 42.9645 37.5758C42.4137 37.7824 41.7939 37.9201 41.2431 38.0578C41.1742 38.1267 41.1054 38.1267 41.0365 38.1267C40.3479 38.3332 39.7282 38.471 39.0396 38.5398C38.6954 38.6087 38.3511 38.6775 38.0068 38.7464C36.9739 38.953 35.9411 39.0218 34.8393 39.1595C33.7376 39.2284 32.6359 39.2973 31.4653 39.2973C30.3636 39.2973 29.2619 39.2284 28.1602 39.1595C28.9176 39.8481 29.8127 40.4678 30.639 41.0875Z" fill="#2F577E"/>
<path d="M17.2125 23.7355C17.2125 23.8732 17.2813 24.0798 17.3502 24.2864C17.4879 24.6307 17.6256 24.975 17.7633 25.3192C18.4519 24.975 19.2782 24.6995 20.0356 24.4241C20.5865 24.2175 21.2062 24.0798 21.7571 23.9421C21.8259 23.8732 21.8948 23.8732 21.9636 23.8732C22.6522 23.7355 23.2719 23.529 23.9605 23.4601C24.3048 23.3912 24.6491 23.3224 24.9934 23.2535C26.0262 23.1158 27.0591 22.9781 28.1608 22.8404C29.2625 22.7715 30.3643 22.7715 31.466 22.7715C32.6366 22.7715 33.7383 22.7715 34.84 22.8404C34.0826 22.1518 33.1874 21.5321 32.3611 20.9124C32.0857 20.7058 31.8103 20.4992 31.466 20.2926C30.9151 19.9484 30.3643 19.5352 29.8134 19.2598C29.7445 19.1909 29.6757 19.1221 29.6068 19.1221C28.574 19.1221 27.61 19.2598 26.646 19.3286C26.0951 19.3975 25.4754 19.4664 24.9245 19.5352C24.2359 19.6729 23.5474 19.8106 22.8588 19.9484C22.2391 20.0861 21.5505 20.2238 20.9308 20.4304C19.4159 20.8435 18.0388 21.3255 16.7305 21.8764C16.8682 22.4961 17.0059 23.1158 17.2125 23.7355Z" fill="#2F577E"/>
<path d="M36.3545 19.3286C37.1119 19.9483 37.8694 20.568 38.5579 21.2566C38.4202 20.7058 38.2825 20.086 38.0759 19.5352C37.5251 19.4663 36.9054 19.3975 36.3545 19.3286Z" fill="#2F577E"/>
<path d="M11.428 30.9654C11.7723 29.5883 12.874 28.2111 14.6643 27.0405C14.4577 26.4897 14.2512 26.0077 14.1135 25.5257C13.9069 24.9059 13.7692 24.2174 13.6315 23.5977C12.7363 24.2174 11.91 24.9748 11.2903 25.6634C10.1197 27.0405 9.5 28.4865 9.5 30.0703V31.9294C9.5 33.5131 10.1197 34.9591 11.2903 36.3363C11.91 37.0249 12.7363 37.7135 13.6315 38.402C14.1823 38.7463 14.7332 39.0906 15.3529 39.4349C15.8349 39.6415 16.248 39.9169 16.73 40.1235C18.0383 40.6743 19.4155 41.1563 20.9304 41.5695C20.7238 40.9498 20.5861 40.2612 20.4483 39.6415C20.3106 38.9529 20.1729 38.2643 20.0352 37.5757C19.2778 37.3003 18.4515 37.0249 17.7629 36.6806C17.4186 36.5429 17.0743 36.4052 16.73 36.1986C16.5923 36.1297 16.3858 36.0609 16.248 35.992C15.6283 35.6477 15.1463 35.3034 14.6643 34.9591C12.874 33.7886 11.7723 32.4114 11.428 30.9654Z" fill="#2F577E"/>
<path d="M36.3544 42.6714C35.3904 42.7402 34.3576 42.878 33.3936 42.878C33.8756 43.2222 34.4264 43.4977 34.9084 43.7042C35.3904 43.36 35.8724 43.0157 36.3544 42.6714Z" fill="#F4B563"/>
<path d="M47.7162 16.0926L46.4079 14.7843C45.3062 13.6826 43.7913 13.0629 42.001 12.9251C41.037 12.8563 40.0042 12.994 38.9024 13.2006C38.2827 13.2694 37.5941 13.476 36.9744 13.6137C36.4924 13.7514 36.0104 13.958 35.4596 14.1646C34.2201 14.6466 32.843 15.2663 31.4658 16.0237C32.0855 16.368 32.6364 16.7123 33.2561 17.1254C33.807 17.4697 34.3578 17.8829 34.9087 18.296C35.6661 17.8829 36.4236 17.5386 37.181 17.2632C37.5253 17.1254 37.8696 16.9877 38.2139 16.85C38.4204 16.7812 38.627 16.7812 38.7647 16.7123C39.3844 16.5057 40.0042 16.368 40.6239 16.2303C42.6896 15.886 44.4799 16.0926 45.7193 16.7812" fill="#F4B563"/>
<path d="M45.7188 16.7809C46.4073 18.0204 46.6139 19.8107 46.2696 21.8764C46.7516 22.083 47.1648 22.3584 47.6468 22.565C48.2665 22.9093 48.8173 23.2536 49.2993 23.5978C49.5059 22.4961 49.6436 21.4633 49.5748 20.4993C49.4371 18.709 48.8173 17.1941 47.7156 16.0924C47.509 15.8169 47.3025 15.6792 47.027 15.4727" fill="#F4B563"/>
<path d="M38.0073 38.7466C38.3516 38.6777 38.6959 38.6088 39.0402 38.54C39.7287 38.4711 40.3484 38.3334 41.037 38.1268C41.1059 38.1268 41.1747 38.1268 41.2436 38.058C41.9322 37.3694 42.5519 36.612 43.1716 35.8545C43.5159 35.3725 43.929 34.8905 44.2045 34.4085C44.6176 33.8577 45.0308 33.3068 45.4439 32.7559C45.7882 32.1362 46.1325 31.5854 46.4768 31.0345C47.2342 29.6574 47.8539 28.2802 48.3359 27.0408C47.8539 26.6965 47.3719 26.3522 46.7522 26.0079C46.6145 25.9391 46.4079 25.8702 46.2702 25.8013C45.9259 25.5948 45.5816 25.4571 45.2373 25.3193C44.9619 26.0768 44.6176 26.8342 44.2045 27.5916C43.9979 28.0736 43.7225 28.6245 43.3782 29.1065C43.3782 29.1754 43.3093 29.2442 43.2405 29.3131C42.965 29.8639 42.5519 30.4148 42.2076 31.0345C42.001 31.3099 41.7945 31.5854 41.5879 31.8608C40.9682 32.6871 40.3484 33.5822 39.6599 34.3397C38.9024 35.2348 38.145 36.0611 37.3187 36.8185C36.5613 37.6448 35.735 38.4023 34.8398 39.1597C35.9416 39.022 36.9744 38.9531 38.0073 38.7466Z" fill="#F4B563"/>
<path d="M26.6455 19.3288C27.6095 19.191 28.5735 19.1222 29.6064 19.1222C29.1244 18.7779 28.5735 18.5025 28.0915 18.2959C27.6095 18.5713 27.1275 18.9845 26.6455 19.3288Z" fill="#F4B563"/>
<path d="M17.2806 45.2192C16.592 43.9798 16.3854 42.1895 16.7297 40.1238C16.2477 39.9172 15.8346 39.6418 15.3526 39.4352C14.7329 39.0909 14.182 38.7466 13.6311 38.4023C13.4934 39.5041 13.3557 40.5369 13.4246 41.5009C13.5623 43.2912 14.182 44.8061 15.2837 45.9078L16.592 47.2161C17.6937 48.3178 19.2086 48.9375 20.9989 49.0753C21.9629 49.1441 22.9958 49.0064 24.0975 48.8687C24.7172 48.731 25.4058 48.5933 26.0255 48.3867C26.5075 48.249 26.9895 48.0424 27.5404 47.8358C28.7798 47.3538 30.1569 46.7341 31.4652 45.9767C30.9144 45.6324 30.3635 45.2881 29.7438 44.9438C29.1929 44.5307 28.6421 44.1864 28.0912 43.7732C27.3338 44.1175 26.5764 44.4618 25.8189 44.7372C25.4746 44.875 25.1303 45.0127 24.7861 45.1504C24.5795 45.2192 24.3729 45.2881 24.2352 45.2881C23.6155 45.4947 22.9958 45.6324 22.376 45.7701C20.3103 46.1144 18.52 45.9078 17.2806 45.2192Z" fill="#F4B563"/>
<path d="M16.2478 35.9921C16.3855 36.061 16.5921 36.1298 16.7298 36.1987C17.0741 36.4053 17.4184 36.543 17.7627 36.6807C18.0381 35.9233 18.3824 35.1658 18.7955 34.4084C19.0021 33.9264 19.2775 33.3755 19.6218 32.8935C19.6218 32.8247 19.6907 32.7558 19.7595 32.687C20.035 32.1361 20.4481 31.5852 20.7924 30.9655C20.999 30.6901 21.2055 30.4147 21.4121 30.1392C22.0318 29.3129 22.6515 28.4178 23.3401 27.6604C24.0975 26.7652 24.855 25.9389 25.6813 25.1815C26.4387 24.3552 27.265 23.5978 28.1601 22.8403C27.0584 22.978 26.0256 23.0469 24.9927 23.2535C24.6484 23.3223 24.3041 23.3912 23.9598 23.46C23.2713 23.5289 22.6515 23.7355 21.963 23.8732C21.8941 23.8732 21.8252 23.8732 21.7564 23.9421C21.0678 24.6306 20.4481 25.3881 19.8284 26.1455C19.4841 26.6275 19.0709 27.1095 18.7267 27.5915C18.3824 28.1424 17.9692 28.6932 17.5561 29.2441C17.2118 29.8638 16.8675 30.4147 16.5232 30.9655C15.7658 32.3427 15.1461 33.7198 14.6641 34.9593C15.1461 35.3035 15.6281 35.6478 16.2478 35.9921Z" fill="#F4B563"/>
<path d="M19.8288 35.8544C19.691 34.8904 19.6222 33.8576 19.6222 32.8936C19.2779 33.3756 19.0025 33.9264 18.7959 34.4084C19.0713 34.8904 19.4845 35.3724 19.8288 35.8544Z" fill="#5CAFCD"/>
<path d="M17.2806 16.7812C18.52 16.0926 20.3103 15.886 22.376 16.2303C22.5826 15.7483 22.858 15.3352 23.0646 14.8531C23.4089 14.2334 23.7532 13.6826 24.0975 13.2006C22.9958 12.994 21.9629 12.8563 20.9989 12.9251C19.2086 13.0629 17.6937 13.6826 16.592 14.7843L15.2837 16.0926C14.182 17.1943 13.5623 18.7092 13.4246 20.4995C13.3557 21.4635 13.4934 22.4963 13.6311 23.5981C13.7689 24.2178 13.9066 24.9063 14.1131 25.5261C14.2509 26.0081 14.4574 26.4901 14.664 27.0409C15.146 28.2804 15.7657 29.6575 16.5232 31.0347C16.8674 30.415 17.2117 29.8641 17.556 29.2444C17.9692 28.6935 18.3823 28.1427 18.7266 27.5918C18.3823 26.8344 18.038 26.0769 17.7626 25.3195C17.6249 24.9752 17.4872 24.6309 17.3494 24.2866C17.2806 24.0801 17.2117 23.8735 17.2117 23.7358C17.0052 23.1161 16.8674 22.4963 16.7297 21.8766C16.3854 19.8109 16.592 18.0206 17.2806 16.7812Z" fill="#5CAFCD"/>
<path d="M43.1719 26.1455C43.2407 27.1095 43.3784 28.1424 43.3784 29.1064C43.7227 28.6244 43.9982 28.0735 44.2047 27.5915C43.9293 27.1095 43.5162 26.6275 43.1719 26.1455Z" fill="#5CAFCD"/>
<path d="M39.2466 24.4927C39.1777 24.1484 39.1088 23.8041 39.04 23.4598C38.9711 22.7713 38.7646 22.1515 38.6268 21.463C38.6268 21.3941 38.6268 21.3252 38.558 21.2564C37.8694 20.5678 37.112 19.9481 36.3545 19.3284C35.8725 18.9841 35.3905 18.5709 34.9085 18.2955C34.3577 17.8824 33.8068 17.4692 33.2559 17.0561C32.6362 16.7118 32.0854 16.3675 31.4657 16.0232C30.1574 15.2658 28.7802 14.6461 27.5408 14.1641C27.1965 14.6461 26.8522 15.1281 26.5079 15.7478C26.4391 15.8855 26.3702 16.0921 26.3013 16.2298C26.0948 16.5741 25.9571 16.9184 25.8193 17.2627C26.5768 17.5381 27.3342 17.8824 28.0916 18.2955C28.5736 18.5021 29.1245 18.7775 29.6065 19.1218C29.6754 19.1218 29.7442 19.1907 29.8131 19.2595C30.3639 19.535 30.9148 19.9481 31.4657 20.2924C31.8099 20.499 32.0854 20.7055 32.3608 20.9121C33.1871 21.5318 34.0822 22.1515 34.8397 22.8401C35.7348 23.5975 36.5611 24.355 37.3185 25.1813C38.1448 25.9387 38.9023 26.765 39.6597 27.6601C39.522 26.5584 39.3843 25.5256 39.2466 24.4927Z" fill="#5CAFCD"/>
<path d="M23.753 37.5073C23.8218 37.8516 23.8907 38.1959 23.9596 38.5402C24.0284 39.2287 24.235 39.8484 24.3727 40.537C24.3727 40.6059 24.3727 40.6747 24.4416 40.7436C25.1301 41.4322 25.8876 42.0519 26.645 42.6716C27.127 43.0159 27.609 43.429 28.091 43.7045C28.6419 44.1176 29.1927 44.5308 29.7436 44.9439C30.3633 45.2882 30.9142 45.6325 31.465 45.9768C32.8422 46.7342 34.2193 47.3539 35.4588 47.8359C35.8031 47.3539 36.1473 46.8719 36.4916 46.2522C36.5605 46.1145 36.6293 45.9079 36.6982 45.7702C36.9048 45.4259 37.0425 45.0816 37.1802 44.7373C36.4228 44.4619 35.6653 44.1176 34.9079 43.7045C34.4259 43.4979 33.875 43.2225 33.393 42.8782C33.3242 42.8782 33.2553 42.8093 33.1865 42.7405C32.6356 42.465 32.0847 42.0519 31.465 41.7076C31.1896 41.501 30.9142 41.2945 30.6387 41.0879C29.8125 40.4682 28.9173 39.8484 28.1599 39.1599C27.2647 38.4024 26.4384 37.645 25.681 36.8187C24.8547 36.0613 24.0973 35.235 23.3398 34.3398C23.4776 35.4416 23.5464 36.4744 23.753 37.5073Z" fill="#5CAFCD"/>
<path d="M46.4078 47.2157L47.7161 45.9074C48.8178 44.8057 49.4375 43.2908 49.5753 41.5005C49.6441 40.5365 49.5064 39.5037 49.2998 38.4019C49.231 37.7822 49.0933 37.0936 48.8867 36.4739C48.749 35.9919 48.5424 35.5099 48.3358 34.9591C47.8538 33.7196 47.2341 32.3425 46.4767 31.0342C46.1324 31.585 45.7881 32.1359 45.4438 32.7556C45.0307 33.3065 44.6175 33.8573 44.2044 34.4082C44.6175 35.1656 44.9618 35.9231 45.2372 36.6805C45.375 37.0248 45.5127 37.3691 45.6504 37.7134C45.7192 37.9199 45.7192 38.1265 45.7881 38.2642C45.9947 38.8839 46.1324 39.5037 46.2701 40.1234C46.6144 42.1891 46.4078 43.9794 45.7192 45.2188C44.4798 45.9074 42.6895 46.114 40.6238 45.7697C40.4172 46.2517 40.1418 46.6648 39.9352 47.1468C39.5909 47.7666 39.2466 48.3174 38.9023 48.7994C40.0041 49.006 41.0369 49.1437 42.0009 49.0749C43.7912 48.9371 45.3061 48.3174 46.4078 47.2157Z" fill="#5CAFCD"/>
<path d="M21.4124 30.139C21.2058 30.4145 20.9992 30.6899 20.7926 31.0342C20.4484 31.585 20.0352 32.1359 19.7598 32.6868C19.6909 32.7556 19.6221 32.8245 19.6221 32.8933C19.6221 33.8573 19.6909 34.8902 19.8286 35.8542C19.8975 36.4051 19.9664 37.0248 20.0352 37.5756C20.1729 38.2642 20.3106 38.9528 20.4484 39.6414C20.5861 40.2611 20.7238 40.9497 20.9304 41.5694C21.3435 43.0842 21.8255 44.4614 22.3764 45.7697C22.9961 45.632 23.6158 45.4943 24.2355 45.2877C24.3732 45.2188 24.5798 45.2188 24.7864 45.15C25.1307 45.0123 25.475 44.8745 25.8192 44.7368C25.475 44.0483 25.1995 43.222 24.9241 42.4645C24.7175 41.9137 24.5798 41.2939 24.4421 40.7431C24.3732 40.6742 24.3732 40.6054 24.3732 40.5365C24.2355 39.8479 24.029 39.2282 23.9601 38.5396C23.8912 38.1954 23.8224 37.8511 23.7535 37.5068C23.547 36.4739 23.4781 35.4411 23.3404 34.3393C23.2715 33.2376 23.2027 32.1359 23.2027 31.0342C23.2027 29.8636 23.2715 28.7619 23.3404 27.6602C22.6518 28.4176 22.0321 29.3127 21.4124 30.139Z" fill="#47B178"/>
<path d="M43.1712 35.8545C42.5515 36.6119 41.9317 37.3694 41.2432 38.0579C41.794 37.9202 42.4137 37.7825 42.9646 37.5759C43.0335 37.0251 43.1023 36.4054 43.1712 35.8545Z" fill="#47B178"/>
<path d="M19.8281 26.1458C20.4478 25.3884 21.0676 24.6998 21.7561 23.9424C21.2053 24.0801 20.5856 24.2178 20.0347 24.4244C19.9658 24.9752 19.897 25.595 19.8281 26.1458Z" fill="#47B178"/>
<path d="M41.5875 31.8606C41.7941 31.5852 42.0007 31.3098 42.2073 31.0344C42.5516 30.4146 42.9647 29.8638 43.2401 29.3129C43.309 29.2441 43.3778 29.1752 43.3778 29.1063C43.3778 28.1423 43.2401 27.1095 43.1713 26.1455C43.1024 25.5946 43.0336 24.9749 42.9647 24.424C42.827 23.7355 42.6893 23.0469 42.5516 22.3583C42.4138 21.7386 42.2761 21.05 42.0695 20.4303C41.6564 18.9154 41.1744 17.5383 40.6235 16.23C40.0038 16.3677 39.3841 16.5054 38.7644 16.712C38.6267 16.7808 38.4201 16.7808 38.2135 16.8497C37.8692 16.9874 37.525 17.1251 37.1807 17.2628C37.525 17.9514 37.8004 18.7777 38.0758 19.5351C38.2824 20.086 38.4201 20.7057 38.5578 21.2566C38.6267 21.3254 38.6267 21.3943 38.6267 21.4632C38.7644 22.1517 38.971 22.7714 39.0398 23.46C39.1087 23.8043 39.1775 24.1486 39.2464 24.4929C39.3841 25.5257 39.5218 26.5586 39.6595 27.6603C39.7284 28.7621 39.7284 29.8638 39.7284 31.0344C39.7284 32.1361 39.7284 33.2378 39.6595 34.3395C40.3481 33.5821 40.9678 32.6869 41.5875 31.8606Z" fill="#47B178"/>
<path d="M38.9025 13.1315C38.2139 12.2363 37.5253 11.41 36.8368 10.7903C35.4596 9.61972 34.0136 9 32.4299 9H30.5707C28.987 9 27.541 9.61972 26.1638 10.7903C25.4753 11.41 24.7178 12.2363 24.0981 13.1315C23.7538 13.6823 23.4095 14.2332 23.0652 14.8529C22.8587 15.3349 22.5832 15.748 22.3767 16.23C21.8258 17.5383 21.3438 18.9155 20.9307 20.4304C21.5504 20.2238 22.239 20.0861 22.8587 19.9483C23.5472 19.8106 24.2358 19.6729 24.9244 19.5352C25.1998 18.7778 25.4753 17.9515 25.8195 17.2629C25.9573 16.9186 26.095 16.5743 26.3016 16.23C26.3704 16.0923 26.4393 15.8858 26.5081 15.748C26.8524 15.1283 27.1967 14.6463 27.541 14.1643C28.7116 12.374 30.0887 11.2723 31.4659 10.928C32.9119 11.2723 34.289 12.374 35.4596 14.1643C36.0105 13.9577 36.4925 13.7512 36.9745 13.6135" fill="#47B178"/>
<path d="M30.5703 52.9997H32.4294C34.0131 52.9997 35.4591 52.38 36.8363 51.2094C37.5249 50.5897 38.2135 49.7634 38.902 48.7994C39.2463 48.3174 39.5906 47.7665 39.9349 47.1468C40.1415 46.6648 40.4169 46.2516 40.6235 45.7696C41.1743 44.4614 41.6563 43.0842 42.0695 41.5693L40.1415 42.0513C39.4529 42.1891 38.7643 42.3268 38.0757 42.4645C37.8003 43.2219 37.5249 44.0482 37.1806 44.7368C37.0429 45.0811 36.9052 45.4254 36.6986 45.7696C36.6297 45.9074 36.5609 46.1139 36.492 46.2516C36.1477 46.8714 35.8034 47.3534 35.4591 47.8354C34.2886 49.6257 32.9114 50.7274 31.4654 51.0717C30.0883 50.7274 28.7111 49.6257 27.5405 47.8354C26.9897 48.0419 26.5077 48.2485 26.0257 48.3862L24.0977 48.7994C24.7174 49.7634 25.4748 50.5897 26.1634 51.2094C27.5405 52.38 28.9865 52.9997 30.5703 52.9997Z" fill="#47B178"/>
</svg>
